<?xml version="1.0" standalone="no"?>
<!DOCTYPE svg PUBLIC "-//W3C//DTD SVG 20010904//EN"
 "http://www.w3.org/TR/2001/REC-SVG-20010904/DTD/svg10.dtd">
<svg version="1.0" xmlns="http://www.w3.org/2000/svg"
 width="1024.000000pt" height="1024.000000pt" viewBox="0 0 1024.000000 1024.000000"
 preserveAspectRatio="xMidYMid meet">

<g transform="translate(0.000000,1024.000000) scale(0.100000,-0.100000)"
fill="#000000" stroke="none">
<path d="M7228 9263 c7 -3 16 -2 19 1 4 3 -2 6 -13 5 -11 0 -14 -3 -6 -6z"/>
<path d="M7325 9171 c-3 -5 -2 -12 3 -15 5 -3 9 1 9 9 0 17 -3 19 -12 6z"/>
<path d="M7253 9145 c0 -8 4 -12 9 -9 5 3 6 10 3 15 -9 13 -12 11 -12 -6z"/>
<path d="M7410 9156 c0 -2 7 -7 16 -10 8 -3 12 -2 9 4 -6 10 -25 14 -25 6z"/>
<path d="M7459 9131 c11 -7 11 -9 0 -13 -8 -3 -2 -5 14 -5 25 0 26 1 10 13
-10 7 -22 13 -28 14 -5 0 -4 -4 4 -9z"/>
<path d="M7449 9098 c-5 -18 -6 -38 -1 -34 7 8 12 36 6 36 -2 0 -4 -1 -5 -2z"/>
<path d="M7440 8985 c0 0 9 -8 19 -17 18 -16 20 -15 18 1 0 9 -9 17 -19 17
-10 0 -18 -1 -18 -1z"/>
<path d="M7391 8897 c2 -1 13 -9 24 -17 19 -14 19 -14 6 3 -7 9 -18 17 -24 17
-6 0 -8 -1 -6 -3z"/>
<path d="M7476 8887 c3 -10 9 -15 12 -12 3 3 0 11 -7 18 -10 9 -11 8 -5 -6z"/>
<path d="M7523 8871 c1 -11 8 -21 15 -21 12 0 12 3 1 18 -7 9 -14 19 -16 21
-1 2 -1 -6 0 -18z"/>
<path d="M7484 8818 c-4 -7 -3 -10 1 -5 5 4 18 -1 29 -10 21 -18 21 -18 2 5
-22 26 -23 26 -32 10z"/>
<path d="M7460 8751 c0 -6 4 -13 10 -16 6 -3 7 1 4 9 -7 18 -14 21 -14 7z"/>
<path d="M7306 8741 c-3 -5 2 -15 12 -22 15 -12 16 -12 5 2 -7 9 -10 19 -6 22
3 4 4 7 0 7 -3 0 -8 -4 -11 -9z"/>
<path d="M7518 8668 c-9 -5 -6 -7 9 -5 12 2 25 6 28 8 8 9 -23 6 -37 -3z"/>
<path d="M7420 8646 c0 -3 9 -10 20 -16 15 -8 25 -8 38 0 16 11 16 11 -1 6
-10 -3 -27 -1 -38 4 -10 6 -19 8 -19 6z"/>
<path d="M7530 8611 c0 -5 7 -12 16 -15 14 -5 15 -4 4 9 -14 17 -20 19 -20 6z"/>
<path d="M7430 8270 c-9 -6 -10 -10 -3 -10 6 0 15 5 18 10 8 12 4 12 -15 0z"/>
<path d="M7436 8087 c3 -10 9 -15 12 -12 3 3 0 11 -7 18 -10 9 -11 8 -5 -6z"/>
<path d="M7388 7853 c6 -2 18 -2 25 0 6 3 1 5 -13 5 -14 0 -19 -2 -12 -5z"/>
<path d="M8784 7421 c-4 -25 -10 -50 -14 -56 -12 -15 13 -101 37 -127 11 -13
30 -42 41 -64 12 -23 28 -44 37 -48 9 -3 25 -26 36 -52 14 -30 33 -53 56 -66
19 -12 30 -24 25 -27 -11 -7 2 -92 27 -165 19 -57 58 -92 93 -82 48 13 50 18
29 87 -11 35 -27 74 -36 86 -16 23 -75 132 -75 139 0 2 7 4 15 4 20 0 19 6 -6
46 -21 34 -47 48 -35 19 18 -44 17 -49 -3 -25 -12 14 -24 38 -28 53 -3 16 -11
31 -18 33 -7 3 -34 30 -60 61 -34 39 -44 57 -35 63 8 5 9 9 1 14 -16 10 -14
56 3 56 11 0 9 11 -9 49 -19 39 -29 49 -49 49 -22 0 -26 -6 -32 -47z"/>
<path d="M8409 7366 c-13 -14 -41 -40 -61 -59 -36 -35 -41 -51 -10 -40 11 5
13 3 7 -7 -6 -10 -4 -12 8 -7 10 4 16 2 14 -6 -1 -8 9 -11 30 -9 36 3 50 -10
28 -28 -8 -7 -15 -9 -15 -6 0 4 -13 -7 -30 -24 -36 -37 -48 -38 -56 -5 -6 22
-25 31 -56 26 -12 -2 -9 13 7 36 13 19 13 22 -1 27 -9 3 -27 6 -40 6 -15 0
-24 6 -24 16 0 26 -23 10 -47 -34 -20 -35 -21 -45 -11 -67 9 -21 9 -29 -4 -41
-13 -13 -14 -23 -6 -51 5 -19 6 -48 3 -65 -5 -21 -3 -33 6 -39 11 -7 10 -9 -3
-9 -19 0 -25 -19 -8 -21 6 -1 14 -2 19 -3 6 0 16 -8 23 -16 11 -12 10 -12 -7
0 -15 11 -15 8 4 -12 24 -28 47 -28 37 -1 -3 8 -1 11 4 8 6 -4 9 -14 8 -23 -5
-29 90 -16 122 16 14 14 19 22 11 17 -10 -5 -12 -4 -7 4 4 6 11 9 16 6 4 -3
29 4 55 15 30 13 52 17 63 11 54 -27 97 -41 126 -41 48 0 94 19 101 42 9 27
-14 80 -32 74 -8 -3 -12 -2 -9 2 8 13 -82 84 -97 76 -6 -4 -9 -3 -5 1 5 5 -21
25 -56 47 -58 34 -90 68 -66 68 15 0 12 22 -7 42 -16 18 -16 18 0 12 24 -9 21
13 -4 26 -19 11 -19 13 -5 29 34 37 11 43 -25 7z m-14 -55 c3 -5 0 -13 -6 -17
-8 -5 -9 -3 -4 6 6 10 4 12 -9 7 -10 -4 -15 -3 -11 3 8 13 22 13 30 1z m-150
-61 c-3 -5 -12 -10 -18 -10 -7 0 -6 4 3 10 19 12 23 12 15 0z m-35 -10 c0 -5
-5 -10 -11 -10 -5 0 -7 5 -4 10 3 6 8 10 11 10 2 0 4 -4 4 -10z"/>
<path d="M7244 7094 c-18 -14 -18 -15 4 -4 12 6 22 13 22 15 0 8 -5 6 -26 -11z"/>
<path d="M7306 7034 c-5 -14 -4 -15 9 -4 17 14 19 20 6 20 -5 0 -12 -7 -15
-16z"/>
<path d="M7275 7010 c3 -5 8 -10 11 -10 2 0 4 5 4 10 0 6 -5 10 -11 10 -5 0
-7 -4 -4 -10z"/>
<path d="M7330 6967 c0 -2 15 -16 33 -33 l32 -29 -29 33 c-28 30 -36 37 -36
29z"/>
<path d="M7530 6956 c0 -2 7 -7 16 -10 8 -3 12 -2 9 4 -6 10 -25 14 -25 6z"/>
<path d="M7570 6936 c0 -3 27 -20 60 -39 33 -18 57 -37 53 -41 -4 -4 1 -4 10
0 10 3 17 7 15 9 -19 13 -138 75 -138 71z"/>
<path d="M7560 6900 c-8 -5 -10 -10 -5 -10 6 0 17 5 25 10 8 5 11 10 5 10 -5
0 -17 -5 -25 -10z"/>
<path d="M7581 6850 c14 -31 19 -36 19 -24 0 6 -7 19 -16 30 -14 18 -14 18 -3
-6z"/>
<path d="M8225 6865 c-5 -2 -23 -6 -39 -10 -15 -3 -26 -9 -22 -12 3 -4 -2 -15
-11 -26 -18 -19 -18 -20 14 -3 18 9 36 16 40 15 20 -3 34 2 29 10 -4 5 -1 11
6 13 14 5 -2 17 -17 13z"/>
<path d="M7468 6853 c7 -3 16 -2 19 1 4 3 -2 6 -13 5 -11 0 -14 -3 -6 -6z"/>
<path d="M7710 6850 c-11 -7 -11 -10 -2 -10 7 0 11 -4 7 -9 -3 -5 -1 -12 5
-16 6 -4 10 5 10 19 0 29 0 29 -20 16z"/>
<path d="M7566 6817 c3 -10 9 -15 12 -12 3 3 0 11 -7 18 -10 9 -11 8 -5 -6z"/>
<path d="M8000 6820 c-8 -5 -11 -12 -7 -16 3 -4 15 -1 24 7 15 11 16 11 6 0
-9 -11 -8 -19 4 -37 13 -21 42 -36 29 -16 -2 4 4 8 14 9 33 3 32 -14 -2 -38
-22 -15 -28 -17 -19 -6 8 10 9 17 3 17 -6 0 -14 -5 -17 -10 -4 -6 -10 -8 -15
-5 -4 3 -10 -2 -13 -9 -3 -8 -1 -17 6 -19 7 -2 4 -3 -5 -2 -10 2 -18 -2 -18
-7 0 -6 -6 -5 -15 2 -13 11 -14 10 -9 -3 3 -8 21 -23 40 -32 32 -15 57 -45 52
-62 -1 -4 4 -19 11 -33 l12 -25 -20 25 c-11 14 -21 28 -21 31 0 10 -30 20 -30
11 0 -5 9 -18 20 -30 19 -20 19 -22 3 -19 -10 1 -25 7 -32 12 -8 5 -5 -5 7
-22 25 -35 28 -47 10 -40 -7 2 -19 -3 -26 -12 -8 -9 -11 -11 -8 -5 9 18 -17
35 -34 22 -13 -8 -13 -9 1 -5 9 3 16 0 16 -7 0 -14 -26 -18 -28 -4 -1 4 -3 13
-4 18 -1 6 -3 15 -4 20 0 6 -10 19 -21 30 -16 16 -18 25 -10 40 8 16 8 20 -3
20 -8 0 -20 7 -27 15 -7 8 -18 15 -24 15 -6 0 -4 -5 4 -10 9 -6 10 -10 3 -10
-6 0 -15 5 -18 10 -4 6 -10 8 -15 5 -5 -3 -12 0 -15 6 -4 5 -14 8 -22 5 -8 -3
-11 -2 -8 3 3 5 27 8 53 6 26 -3 40 -2 32 1 -38 14 -60 28 -65 43 -3 9 -19 24
-36 33 -17 10 -27 23 -23 29 5 8 1 8 -14 0 -22 -12 -55 -5 -46 10 3 5 -2 6
-11 3 -8 -4 -23 0 -32 7 -12 10 -15 10 -9 1 4 -7 25 -21 47 -33 28 -14 39 -25
37 -37 -3 -9 -10 -16 -17 -14 -7 1 -10 -2 -6 -8 5 -8 11 -8 20 0 8 7 18 9 24
6 5 -3 12 0 14 6 4 10 6 10 6 1 1 -7 6 -13 12 -13 8 0 8 5 -1 15 -7 8 -8 15
-2 15 5 0 15 -6 21 -14 10 -12 8 -16 -11 -22 -13 -3 -26 -12 -30 -18 -6 -8
-11 -7 -17 3 -7 10 -9 7 -8 -11 2 -22 6 -25 42 -24 22 1 45 -3 51 -9 12 -10 7
-36 -9 -46 -5 -4 -12 -30 -15 -58 -2 -28 -8 -51 -13 -51 -5 0 -9 5 -9 11 0 6
-5 9 -12 7 -8 -3 -11 -21 -9 -51 2 -42 0 -47 -18 -47 -18 0 -21 -6 -21 -40 0
-23 5 -40 11 -40 8 0 8 -5 -1 -15 -19 -22 -30 -18 -30 11 0 16 -5 24 -12 22
-8 -3 -12 -19 -10 -42 2 -21 -1 -50 -8 -65 -9 -23 -16 -27 -41 -23 -25 4 -28
7 -17 21 10 13 10 14 -2 4 -15 -14 -34 -18 -27 -5 3 4 -8 7 -23 7 -16 1 -27
-2 -24 -6 7 -11 -25 -17 -93 -18 -34 -1 -65 4 -68 9 -4 6 -11 7 -18 3 -19 -12
24 -22 100 -22 69 -1 75 -3 140 -48 37 -25 74 -46 81 -46 6 0 12 -5 12 -10 0
-6 3 -7 7 -4 3 4 11 1 17 -7 17 -21 122 -56 167 -56 46 0 56 17 60 100 2 28 8
55 15 61 7 6 34 8 62 5 28 -3 84 -6 126 -7 49 -1 79 -6 84 -14 4 -8 48 -15
123 -19 97 -6 118 -5 128 8 23 27 74 38 105 22 34 -18 81 -5 98 28 7 12 12 68
12 136 1 90 -3 127 -18 170 -11 30 -19 64 -19 75 1 17 1 17 -3 2 -4 -13 -11
-16 -26 -11 -13 4 -27 -1 -42 -15 -21 -19 -28 -21 -67 -12 -73 17 -89 15 -89
-14 0 -21 -5 -25 -29 -25 -17 0 -33 -4 -36 -10 -3 -5 -16 -10 -28 -9 -22 1
-22 1 1 7 13 4 23 10 23 15 -1 4 -1 12 -1 18 0 7 -11 9 -30 6 -17 -4 -30 -2
-30 3 0 6 -9 10 -19 10 -13 0 -21 8 -23 23 -2 12 -9 21 -16 19 -8 -1 -11 2 -6
9 9 15 -17 31 -31 19 -7 -6 -11 -2 -12 13 -1 12 2 24 7 27 15 9 -21 70 -41 70
-18 0 -23 18 -22 67 1 7 -3 11 -7 8 -5 -3 -11 -1 -15 5 -8 13 -75 13 -95 0z
m98 -22 c-2 -6 -17 -13 -34 -14 -23 -3 -25 -2 -9 5 11 5 23 7 28 4 4 -2 7 1 7
6 0 6 3 11 6 11 3 0 4 -5 2 -12z m-353 -69 c-4 -5 -11 -9 -16 -9 -6 0 -7 5 -4
10 3 6 1 10 -4 10 -6 0 -11 5 -11 10 0 7 7 7 20 0 11 -6 18 -15 15 -21z m24
-58 c-13 -11 -26 -17 -29 -14 -6 6 30 33 43 33 5 0 -1 -9 -14 -19z m81 -62 c0
-6 9 -9 20 -6 27 7 25 -1 -2 -13 -18 -7 -19 -9 -5 -9 21 -1 23 -18 2 -18 -14
0 -19 10 -16 30 0 4 -3 7 -9 7 -5 0 -10 5 -10 10 0 6 5 10 10 10 6 0 10 -5 10
-11z m751 -93 c-7 -8 -14 -24 -16 -36 -9 -46 -41 -64 -65 -35 -10 13 -9 19 5
35 10 11 20 18 23 15 3 -2 16 5 30 15 29 23 39 26 23 6z m-557 -56 c-6 -6 -10
-3 -10 10 0 13 4 16 10 10 7 -7 7 -13 0 -20z m135 -10 c-6 -5 -18 -6 -26 -3
-19 8 -16 11 13 11 17 0 22 -3 13 -8z m-69 -9 c0 -4 25 -7 55 -6 59 2 74 -5
52 -24 -15 -11 -66 -15 -107 -7 -14 2 -28 5 -32 5 -18 2 -7 37 12 38 11 1 20
-2 20 -6z m-63 -33 c-3 -8 -6 -5 -6 6 -1 11 2 17 5 13 3 -3 4 -12 1 -19z m-72
-179 c11 -16 1 -19 -13 -3 -7 8 -8 14 -3 14 5 0 13 -5 16 -11z m-387 -36 c11
-11 11 -13 0 -14 -10 0 -10 -2 0 -6 6 -2 12 -9 12 -14 0 -5 -11 -2 -24 7 -15
9 -23 21 -19 30 4 11 0 14 -18 11 -13 -2 -18 -2 -11 0 7 3 9 9 6 15 -8 13 36
-10 54 -29z m76 -44 c-2 -4 2 -10 8 -12 9 -4 7 -6 -3 -6 -9 -1 -21 5 -27 12
-8 10 -6 13 8 13 10 0 17 -3 14 -7z m225 -83 c9 -11 9 -16 -1 -22 -7 -4 -10
-4 -6 1 4 4 3 14 -3 22 -6 7 -9 13 -6 13 2 0 10 -6 16 -14z m-19 -10 c0 -2 -7
-7 -16 -10 -8 -3 -12 -2 -9 4 6 10 25 14 25 6z"/>
<path d="M7694 6798 c-10 -16 4 -22 28 -11 l22 10 -22 5 c-12 4 -25 2 -28 -4z"/>
<path d="M7396 6767 c3 -10 9 -15 12 -12 3 3 0 11 -7 18 -10 9 -11 8 -5 -6z"/>
<path d="M7930 6773 c0 -10 52 -63 63 -63 5 0 7 6 4 14 -3 8 0 17 8 20 8 3 15
0 18 -7 2 -7 5 -8 10 0 4 6 -3 19 -14 29 -16 14 -19 15 -14 2 10 -24 -23 -31
-42 -8 -17 20 -33 26 -33 13z"/>
<path d="M8070 6750 c-9 -6 -10 -10 -3 -10 6 0 15 5 18 10 8 12 4 12 -15 0z"/>
<path d="M7600 6723 c0 -10 4 -14 8 -8 4 6 11 13 16 18 5 4 2 7 -7 7 -10 0
-17 -8 -17 -17z"/>
<path d="M7470 6720 c0 -5 5 -10 11 -10 5 0 7 5 4 10 -3 6 -8 10 -11 10 -2 0
-4 -4 -4 -10z"/>
<path d="M7635 6710 c-6 -20 10 -60 24 -60 5 0 7 -9 4 -20 -3 -11 -10 -20 -15
-20 -6 0 -8 7 -5 14 4 10 1 13 -9 9 -8 -3 -13 -10 -12 -17 1 -6 -3 -21 -10
-33 -8 -15 -9 -23 -2 -23 5 0 10 5 10 10 0 7 6 7 18 1 22 -12 46 11 29 28 -7
7 -7 11 -1 11 16 0 10 40 -7 51 -8 5 -9 9 -4 9 6 0 4 4 -4 9 -8 5 -11 16 -8
26 4 9 12 13 18 9 8 -4 9 -3 5 4 -11 18 -24 14 -31 -8z m25 -120 c0 -5 -7 -10
-16 -10 -8 0 -12 5 -9 10 3 6 10 10 16 10 5 0 9 -4 9 -10z"/>
<path d="M7530 6692 c0 -6 5 -14 11 -17 6 -4 8 -14 4 -23 -3 -9 -3 -13 1 -9 4
4 13 -1 21 -11 12 -16 13 -15 6 3 -8 26 -43 71 -43 57z"/>
<path d="M7670 6686 c0 -4 7 -14 15 -22 8 -9 15 -11 15 -6 0 5 -7 15 -15 22
-8 7 -15 9 -15 6z"/>
<path d="M7448 6623 c7 -3 16 -2 19 1 4 3 -2 6 -13 5 -11 0 -14 -3 -6 -6z"/>
<path d="M7921 6626 c2 -2 20 -6 39 -10 25 -4 31 -3 20 4 -14 9 -69 15 -59 6z"/>
<path d="M7498 6603 c7 -3 16 -2 19 1 4 3 -2 6 -13 5 -11 0 -14 -3 -6 -6z"/>
<path d="M7530 6588 c0 -4 6 -8 14 -8 8 0 17 4 20 8 2 4 -4 8 -15 8 -10 0 -19
-4 -19 -8z"/>
<path d="M7445 6570 c3 -5 16 -10 28 -9 21 0 21 1 2 9 -28 12 -37 12 -30 0z"/>
<path d="M7557 6553 c-10 -9 -9 -23 1 -23 5 0 9 7 9 15 0 17 -1 18 -10 8z"/>
<path d="M7556 6508 c4 -7 9 -23 10 -36 4 -31 10 -37 17 -17 4 8 2 15 -3 15
-6 0 -10 5 -10 11 0 6 7 8 18 4 13 -5 12 -1 -5 14 -25 23 -38 28 -27 9z"/>
<path d="M7388 6503 c7 -3 16 -2 19 1 4 3 -2 6 -13 5 -11 0 -14 -3 -6 -6z"/>
<path d="M7430 6490 c8 -5 20 -10 25 -10 6 0 3 5 -5 10 -8 5 -19 10 -25 10 -5
0 -3 -5 5 -10z"/>
<path d="M7510 6459 c0 -5 9 -9 19 -9 11 0 22 -6 24 -12 4 -8 6 -7 6 3 1 10
-9 19 -24 21 -14 3 -25 1 -25 -3z"/>
<path d="M7480 6430 c-11 -7 -6 -8 17 -4 25 5 32 2 36 -12 5 -17 6 -17 4 1 -2
22 -34 31 -57 15z"/>
<path d="M7565 6420 c-3 -5 -1 -10 4 -10 6 0 11 5 11 10 0 6 -2 10 -4 10 -3 0
-8 -4 -11 -10z"/>
<path d="M7657 6424 c-8 -8 1 -24 14 -24 5 0 9 7 9 15 0 15 -12 20 -23 9z"/>
<path d="M7270 6411 c0 -6 5 -11 11 -11 5 0 7 -4 4 -10 -3 -6 1 -7 10 -4 9 4
15 7 13 8 -2 1 -11 8 -20 15 -12 9 -18 10 -18 2z"/>
<path d="M7488 6403 c7 -3 16 -2 19 1 4 3 -2 6 -13 5 -11 0 -14 -3 -6 -6z"/>
<path d="M7333 6363 c0 -18 1 -32 2 -30 12 14 25 48 17 43 -6 -3 -12 0 -14 6
-3 7 -5 -2 -5 -19z"/>
<path d="M7299 6322 c-3 -20 -2 -29 4 -23 5 5 7 19 5 32 -3 20 -5 19 -9 -9z"/>
<path d="M7345 6309 c-4 -6 -5 -12 -2 -15 2 -3 7 2 10 11 7 17 1 20 -8 4z"/>
<path d="M7276 6272 c-3 -5 1 -9 9 -9 8 0 12 4 9 9 -3 4 -7 8 -9 8 -2 0 -6 -4
-9 -8z"/>
<path d="M7346 6253 c-6 -14 -5 -15 5 -6 7 7 10 15 7 18 -3 3 -9 -2 -12 -12z"/>
<path d="M7485 6250 c3 -5 8 -10 11 -10 2 0 4 5 4 10 0 6 -5 10 -11 10 -5 0
-7 -4 -4 -10z"/>
<path d="M9185 6230 c-4 -20 -1 -43 8 -63 32 -68 107 -248 107 -257 0 -5 3
-11 8 -14 4 -2 6 14 4 37 -3 29 -1 39 6 32 6 -5 13 -34 16 -64 3 -30 8 -56 10
-58 10 -10 46 19 50 40 13 69 23 170 19 187 -8 29 -19 25 -29 -11 l-9 -32 -63
79 c-34 43 -62 86 -62 96 0 9 -13 26 -29 37 l-29 21 -7 -30z"/>
<path d="M7280 6236 c0 -3 9 -10 20 -16 11 -6 20 -8 20 -6 0 3 -9 10 -20 16
-11 6 -20 8 -20 6z"/>
<path d="M8610 6072 c0 -13 119 -239 176 -334 19 -31 56 -121 83 -200 93 -272
150 -433 150 -424 1 16 62 -46 92 -93 30 -47 36 -88 19 -122 -6 -10 -7 -19 -2
-19 4 0 16 -16 26 -36 l17 -37 30 28 c16 16 29 25 29 21 0 -4 14 6 31 23 17
17 36 31 42 31 6 0 21 12 33 28 12 15 25 25 27 22 7 -6 -42 -244 -72 -355 -32
-116 -97 -246 -194 -387 -82 -119 -258 -401 -290 -463 -21 -42 -42 -126 -66
-270 -26 -153 -69 -275 -119 -341 -38 -49 -103 -108 -250 -226 -48 -39 -74
-67 -78 -85 -22 -101 -86 -205 -151 -243 -79 -47 -103 -65 -103 -79 0 -38
-169 -192 -369 -336 -121 -87 -149 -99 -322 -134 -120 -24 -147 -27 -162 -16
-13 9 -15 15 -7 20 6 4 9 13 6 20 -3 8 2 19 10 26 45 37 58 141 29 235 -20 68
-19 89 11 151 24 48 26 62 22 141 -3 67 -10 100 -31 146 -15 32 -27 72 -27 90
1 58 55 154 150 261 47 54 49 59 55 133 3 42 12 91 20 108 26 60 -20 237 -78
294 -14 14 -46 45 -71 69 -25 24 -46 50 -46 58 0 7 -5 21 -11 31 -10 15 -5 25
24 57 20 21 33 44 29 49 -12 20 -9 51 10 94 23 56 22 132 -2 132 -10 0 -24 10
-32 22 -14 21 -16 21 -54 6 -21 -9 -61 -18 -89 -22 -63 -8 -98 8 -105 49 -4
21 -17 37 -50 57 l-45 28 -82 -34 c-168 -71 -299 -100 -388 -86 -39 7 -79 2
-185 -20 -224 -47 -230 -48 -223 -37 4 6 0 8 -11 4 -9 -4 -15 -3 -12 1 8 13
-50 43 -71 36 -11 -4 -14 -3 -6 3 8 6 -4 17 -39 37 l-50 28 -27 -19 c-44 -32
-58 -36 -26 -7 l30 27 -30 -7 c-22 -5 -26 -4 -15 4 11 7 11 10 2 10 -7 0 -10
5 -6 11 4 7 9 7 13 1 7 -11 51 -26 51 -18 0 3 -21 17 -47 31 -87 45 -158 99
-155 118 2 9 -2 17 -7 17 -6 0 -8 6 -5 13 2 7 -10 26 -28 42 -18 17 -27 23
-20 14 15 -21 3 -32 -17 -17 -10 8 -9 4 3 -10 14 -16 22 -19 32 -11 14 11 29
-4 19 -20 -3 -5 -1 -13 5 -16 7 -4 7 -11 2 -18 -5 -7 -9 -20 -9 -29 0 -14 3
-15 14 -7 16 14 47 -7 39 -28 -3 -7 -1 -13 4 -13 6 0 10 -7 10 -16 0 -11 6
-14 20 -9 11 4 20 2 20 -4 0 -6 -7 -11 -15 -11 -8 0 -15 -7 -15 -15 0 -11 -12
-15 -46 -15 -28 0 -43 -4 -39 -10 4 -6 10 -8 14 -6 4 3 13 1 21 -5 18 -10 10
-12 -58 -9 -36 1 -46 -3 -69 -30 -20 -24 -32 -31 -51 -27 -17 3 -32 -2 -49
-19 -27 -27 -39 -30 -46 -11 -3 8 -12 5 -29 -10 -13 -13 -30 -23 -36 -23 -7 0
-12 -9 -12 -20 0 -18 -7 -20 -75 -20 -64 0 -75 2 -76 18 0 10 -3 12 -6 5 -2
-7 -8 -13 -13 -13 -8 0 -95 55 -135 85 -20 16 -35 19 -35 9 0 -8 99 -104 106
-104 13 0 35 -31 29 -40 -10 -15 -35 -12 -35 5 0 8 -4 15 -10 15 -5 0 -10 -5
-10 -10 0 -21 -65 -50 -112 -50 -26 0 -50 -4 -53 -10 -3 -5 -17 -10 -31 -10
-15 0 -24 -6 -24 -15 0 -11 -11 -15 -40 -15 -31 0 -40 4 -40 17 0 14 -3 14
-22 -4 -35 -31 -63 -43 -102 -43 -20 0 -36 -4 -36 -10 0 -5 -18 -10 -40 -10
-29 0 -40 -4 -40 -15 0 -13 -33 -15 -240 -15 -207 0 -240 -2 -240 -15 0 -13
-24 -15 -160 -15 -112 0 -160 3 -160 11 0 8 -4 8 -13 0 -16 -13 -37 4 -37 30
0 21 47 32 54 13 6 -16 156 -20 156 -5 0 5 -25 9 -56 9 -34 0 -59 4 -64 12 -6
9 -9 9 -12 -1 -3 -8 -9 -10 -14 -6 -4 4 -3 17 4 27 21 34 11 110 -14 110 -12
0 -12 -4 1 -24 17 -26 12 -71 -12 -95 -19 -18 -94 -16 -109 3 -6 9 -14 13 -17
10 -3 -4 -4 9 0 29 3 19 1 43 -5 53 -9 16 -11 11 -10 -24 0 -24 -2 -46 -5 -49
-12 -11 24 -48 46 -48 15 0 22 -6 22 -20 0 -32 -51 -33 -76 -1 -46 59 -96 64
-146 17 -20 -19 -34 -21 -138 -21 -96 0 -115 3 -115 15 0 12 -16 15 -80 15
-47 0 -80 4 -80 10 0 6 -18 10 -40 10 -30 0 -40 4 -40 16 0 12 -11 15 -53 13
-56 -3 -115 21 -151 60 -11 12 -24 21 -31 21 -7 0 -22 14 -35 30 -13 17 -28
30 -33 30 -6 0 -25 11 -43 25 -18 14 -37 25 -43 25 -6 0 -11 4 -11 8 0 5 -12
15 -27 23 -15 8 -43 29 -62 47 -20 17 -38 32 -42 32 -3 0 -19 11 -35 25 -16
14 -34 25 -41 25 -6 0 -19 7 -28 16 -9 9 -18 14 -21 11 -4 -4 19 -23 106 -84
13 -10 44 -37 69 -60 24 -24 52 -43 62 -43 12 0 19 -7 19 -18 0 -11 14 -26 34
-37 24 -13 32 -23 28 -37 -6 -23 -62 -26 -62 -3 0 8 5 15 11 15 6 0 4 7 -5 15
-16 17 -86 21 -86 5 0 -16 -20 -12 -48 10 -18 14 -28 17 -32 9 -6 -8 -14 -8
-31 2 -21 11 -21 14 -6 17 9 2 15 8 12 13 -8 12 -55 12 -55 -1 0 -17 -26 -11
-45 10 -13 14 -31 20 -62 20 -46 0 -90 18 -112 44 -11 13 -11 16 0 16 11 0 11
2 0 13 -11 10 -14 10 -18 0 -7 -19 -18 -16 -53 17 -20 19 -27 30 -17 30 19 0
29 24 14 39 -15 15 -27 14 -27 -4 0 -11 -12 -15 -49 -15 -41 0 -54 5 -81 30
-20 19 -27 30 -17 30 19 0 29 24 14 39 -15 15 -27 14 -27 -4 0 -24 -75 -20
-100 5 -25 25 -25 31 0 63 11 14 20 30 20 36 0 6 5 11 10 11 6 0 10 7 10 15 0
8 6 15 14 15 8 0 16 7 19 14 13 32 -29 4 -117 -79 -11 -11 -29 -26 -39 -34
-15 -12 -17 -12 -11 3 3 9 2 16 -4 16 -5 0 -13 11 -16 24 -8 31 -36 44 -29 13
4 -18 3 -19 -6 -7 -9 12 -11 11 -12 -10 -1 -15 -5 -8 -10 20 -14 69 -31 120
-41 120 -4 0 -8 8 -9 18 0 11 -2 12 -6 4 -3 -7 0 -18 6 -25 5 -7 17 -40 26
-72 17 -67 19 -102 4 -70 -10 22 -11 26 6 -67 4 -21 11 -35 16 -32 5 3 6 -1 3
-9 -8 -21 39 -118 72 -148 16 -15 40 -29 53 -32 23 -6 74 11 67 22 -2 3 7 7
21 8 19 1 22 -1 12 -8 -11 -7 -9 -9 8 -9 29 0 83 -47 100 -87 7 -19 18 -31 23
-28 10 6 -15 53 -34 67 -6 4 -7 10 -3 14 4 4 2 13 -4 21 -8 8 -8 13 -1 13 6 0
13 -5 15 -10 3 -6 4 -5 3 2 -4 22 -31 15 -27 -7 3 -20 3 -20 -18 -1 -25 23
-26 27 -4 19 9 -4 14 -2 10 3 -3 6 6 10 23 10 26 0 28 -2 24 -31 -2 -18 3 -40
11 -51 8 -11 15 -14 15 -6 0 6 5 12 12 12 9 0 9 -3 0 -12 -15 -15 -16 -31 0
-22 6 4 8 3 5 -3 -4 -6 0 -16 8 -23 18 -15 19 -36 3 -46 -7 -5 -8 -3 -3 6 5 8
3 11 -4 9 -14 -5 -14 -6 -6 -57 10 -57 26 -102 36 -102 12 0 11 17 -3 43 -6
12 -14 36 -18 53 -6 27 -5 31 8 27 11 -5 13 -3 7 7 -6 10 -4 12 9 7 20 -8 44
2 28 12 -6 4 -6 15 0 31 l10 25 11 -33 c10 -28 21 -37 64 -52 28 -10 54 -15
57 -12 3 3 6 1 6 -5 0 -10 42 -33 61 -33 6 0 7 5 3 12 -5 7 -3 8 5 4 7 -5 10
-11 7 -14 -10 -10 57 -44 88 -44 17 -1 61 3 97 7 54 6 67 5 72 -7 4 -11 -1
-14 -21 -10 -27 5 -27 5 -8 -17 20 -22 32 -28 21 -11 -3 6 1 10 10 10 11 0 15
6 10 19 -4 15 0 19 19 19 20 -1 25 -6 28 -33 3 -26 0 -32 -12 -28 -8 2 -3 -3
13 -12 31 -18 33 -27 12 -49 -14 -14 -13 -16 12 -22 96 -21 125 -36 153 -81
22 -35 29 -40 33 -26 4 15 5 15 6 1 0 -9 14 -22 30 -29 16 -7 28 -16 26 -19
-3 -6 16 -26 28 -27 102 -12 169 -13 182 -3 16 14 35 5 35 -16 0 -8 6 -14 13
-14 13 0 277 -268 277 -282 0 -5 -22 -33 -50 -62 -58 -61 -64 -81 -22 -71 21
4 33 1 47 -15 10 -11 23 -20 29 -20 6 0 0 7 -12 16 -18 12 -22 24 -20 54 2 33
4 37 19 29 10 -5 30 -9 46 -9 55 0 74 -11 71 -38 -3 -21 -12 -31 -47 -49 -1
-1 0 -6 3 -11 3 -6 24 8 46 30 30 31 45 39 62 35 43 -11 127 -43 141 -55 8 -7
17 -9 20 -6 13 13 57 -27 57 -51 0 -25 1 -25 30 -10 38 20 54 19 120 -4 30
-11 67 -17 81 -14 43 8 99 -14 188 -72 73 -47 91 -55 132 -55 45 0 50 -3 73
-37 68 -105 57 -166 -40 -243 -36 -28 -63 -54 -60 -58 2 -4 -2 -22 -10 -41
-11 -26 -19 -32 -34 -28 -17 4 -20 0 -20 -34 0 -21 8 -73 17 -115 13 -61 14
-80 4 -96 -7 -11 -10 -32 -6 -48 4 -20 -1 -38 -20 -65 -15 -23 -23 -46 -19
-57 4 -12 0 -18 -11 -18 -8 0 -18 -7 -21 -15 -5 -11 -23 -15 -71 -15 -44 0
-69 -5 -79 -15 -9 -8 -26 -15 -39 -15 -14 0 -40 -13 -58 -30 -19 -16 -39 -30
-45 -30 -6 0 -4 -13 5 -31 9 -17 19 -46 23 -64 8 -37 -6 -134 -21 -150 -7 -7
-8 -1 -4 18 5 20 3 27 -7 27 -12 0 -14 -14 -12 -68 2 -46 -1 -75 -10 -87 -12
-17 -17 -17 -91 -2 -43 9 -80 15 -82 13 -2 -2 18 -16 44 -31 62 -36 103 -74
103 -97 0 -15 -9 -18 -62 -18 l-63 -1 32 -29 c18 -16 33 -33 33 -36 0 -4 -17
-4 -38 -1 l-37 6 39 -24 c21 -13 45 -21 52 -18 8 3 18 -5 23 -18 20 -51 83
-98 224 -168 172 -86 196 -93 413 -131 290 -50 449 -63 754 -62 379 1 626 26
960 98 1299 278 2432 1158 3029 2352 240 479 373 919 447 1482 11 81 18 233
21 435 5 299 0 416 -29 659 l-11 99 -20 -27 c-21 -29 -51 -28 -74 2 -12 14
-13 13 -13 -6 0 -48 23 -125 46 -149 22 -24 24 -34 24 -127 0 -56 -7 -159 -16
-231 -14 -109 -20 -134 -40 -153 -12 -13 -26 -38 -29 -55 -19 -90 -185 -327
-228 -327 -24 0 -37 24 -37 67 0 65 -44 256 -84 368 -20 55 -66 152 -101 216
-35 64 -75 141 -88 170 -13 30 -50 86 -81 124 -31 39 -56 75 -57 80 0 6 -6 -2
-13 -18 l-12 -27 -47 67 c-26 37 -47 62 -47 55z m-7113 -1729 c-3 -10 -5 -4
-5 12 0 17 2 24 5 18 2 -7 2 -21 0 -30z m20 -20 c-3 -10 -5 -2 -5 17 0 19 2
27 5 18 2 -10 2 -26 0 -35z m83 2 c0 -8 -4 -15 -10 -15 -5 0 -7 7 -4 15 4 8 8
15 10 15 2 0 4 -7 4 -15z m4110 -49 l25 -14 -27 1 c-14 1 -24 5 -22 9 2 3 -2
9 -8 11 -7 3 -8 6 -3 6 6 0 21 -6 35 -13z m37 -32 c-3 -3 -12 -4 -19 -1 -8 3
-5 6 6 6 11 1 17 -2 13 -5z m-4164 -29 c-3 -9 -8 -14 -10 -11 -3 3 -2 9 2 15
9 16 15 13 8 -4z m-15 -40 c-3 -3 -9 2 -12 12 -6 14 -5 15 5 6 7 -7 10 -15 7
-18z m4272 10 c0 -2 -10 -9 -22 -15 -22 -11 -22 -10 -4 4 21 17 26 19 26 11z
m40 -5 c8 -5 11 -10 5 -10 -5 0 -17 5 -25 10 -8 5 -10 10 -5 10 6 0 17 -5 25
-10z m-4215 -30 c-3 -5 -12 -10 -18 -10 -7 0 -6 4 3 10 19 12 23 12 15 0z
m5575 -38 c0 -15 -28 -47 -35 -40 -8 8 13 48 25 48 6 0 10 -4 10 -8z m-1275
-22 c3 0 3 4 0 10 -3 6 1 7 10 4 21 -9 11 -17 -23 -19 -18 -1 -29 3 -29 11 0
9 5 10 18 3 10 -5 20 -9 24 -9z m-3988 -32 c-3 -8 -6 -5 -6 6 -1 11 2 17 5 13
3 -3 4 -12 1 -19z m-60 -4 c0 -7 -6 -10 -14 -7 -7 3 -13 8 -13 12 0 4 6 8 13
8 8 0 14 -6 14 -13z m75 -37 c3 -14 0 -24 -7 -24 -7 0 -10 10 -7 24 2 13 6 23
7 23 1 0 5 -10 7 -23z m248 -7 c0 -5 -5 -10 -11 -10 -5 0 -7 5 -4 10 3 6 8 10
11 10 2 0 4 -4 4 -10z m-185 -20 c-7 -12 7 -13 21 -2 5 4 1 -1 -9 -10 -11 -10
-24 -18 -31 -18 -6 0 -4 5 4 11 12 9 11 10 -7 6 -13 -3 -23 -3 -23 -1 0 3 10
9 23 14 29 12 29 12 22 0z m570 -50 c4 0 14 -7 23 -16 15 -15 14 -16 -8 -9
-14 4 -26 12 -28 16 -2 5 -9 9 -16 9 -16 0 -48 39 -41 50 3 5 19 -4 35 -20 16
-17 32 -30 35 -30z m2552 54 c-3 -3 -12 -4 -19 -1 -8 3 -5 6 6 6 11 1 17 -2
13 -5z m-3024 -34 c4 -17 3 -19 -9 -9 -8 6 -14 18 -14 26 0 20 16 8 23 -17z
m3077 21 c0 -14 -18 -23 -30 -16 -6 4 -8 11 -5 16 8 12 35 12 35 0z m-2890
-11 c0 -5 -4 -10 -10 -10 -5 0 -10 5 -10 10 0 6 5 10 10 10 6 0 10 -4 10 -10z
m2780 -20 c0 -5 -7 -10 -15 -10 -8 0 -15 5 -15 10 0 6 7 10 15 10 8 0 15 -4
15 -10z m-53 -26 c-3 -3 -12 -4 -19 -1 -8 3 -5 6 6 6 11 1 17 -2 13 -5z
m-2690 -13 c9 9 13 8 13 0 0 -8 8 -10 21 -6 16 5 19 4 14 -6 -6 -9 -3 -11 10
-5 15 5 16 4 5 -9 -10 -12 -16 -13 -26 -4 -8 6 -14 8 -14 3 0 -5 -5 -2 -10 6
-7 10 -12 12 -17 4 -10 -14 -73 -26 -73 -14 0 6 12 10 26 10 21 0 25 4 19 18
-5 13 -4 14 6 5 9 -9 16 -10 26 -2z m100 -11 c-1 -11 -7 -22 -14 -24 -9 -4
-10 0 -1 19 14 30 17 31 15 5z m73 10 c0 -5 -4 -10 -10 -10 -5 0 -10 5 -10 10
0 6 5 10 10 10 6 0 10 -4 10 -10z m-223 -6 c-3 -3 -12 -4 -19 -1 -8 3 -5 6 6
6 11 1 17 -2 13 -5z m-44 -11 c-7 -2 -19 -2 -25 0 -7 3 -2 5 12 5 14 0 19 -2
13 -5z m224 -45 c-3 -7 -5 -2 -5 12 0 14 2 19 5 13 2 -7 2 -19 0 -25z m173 22
c0 -5 -4 -10 -10 -10 -5 0 -10 5 -10 10 0 6 5 10 10 10 6 0 10 -4 10 -10z m56
-37 c-7 -7 -26 7 -26 19 0 6 6 6 15 -2 9 -7 13 -15 11 -17z m-181 -22 c0 -23
-3 -27 -13 -19 -11 9 -11 13 0 19 11 7 11 9 0 9 -7 0 -10 5 -7 10 12 19 21 10
20 -19z m937 12 c10 -9 18 -22 18 -30 0 -7 11 -13 25 -13 14 0 25 -5 25 -10 0
-6 -10 -8 -23 -5 -18 5 -23 2 -24 -15 -4 -46 -76 -66 -121 -34 -16 11 -22 25
-22 52 0 20 4 42 8 48 18 27 87 32 114 7z m108 -53 c0 -5 -7 -7 -15 -4 -8 4
-15 8 -15 10 0 2 7 4 15 4 8 0 15 -4 15 -10z m-362 -34 c17 -23 20 -23 35 -9
8 9 33 17 54 18 21 2 32 0 24 -2 -9 -4 5 -17 37 -38 38 -24 48 -35 41 -46 -7
-12 -17 -9 -59 14 -84 46 -102 32 -50 -37 16 -21 27 -43 24 -47 -8 -14 -34
-10 -40 6 -10 25 -21 17 -21 -15 0 -32 -27 -70 -50 -70 -12 0 -11 -4 1 -22 18
-26 21 -48 5 -48 -15 0 -86 80 -100 112 -23 56 39 120 97 98 l28 -11 -19 23
c-11 13 -30 35 -43 50 -24 26 -23 48 3 48 7 0 22 -11 33 -24z m32 14 c0 -5 -5
-10 -11 -10 -5 0 -7 5 -4 10 3 6 8 10 11 10 2 0 4 -4 4 -10z m-180 -183 c21 6
22 4 16 -22 -9 -34 25 -76 54 -68 24 6 37 -17 16 -29 -9 -5 -14 -14 -10 -19 3
-6 -8 -4 -24 5 -17 9 -39 30 -49 46 -10 17 -23 28 -31 25 -16 -6 -35 41 -26
68 6 19 8 19 19 4 7 -11 19 -14 35 -10z m-280 -2 c0 -2 -9 -3 -19 -2 -11 0
-18 5 -15 9 4 6 34 0 34 -7z m2800 -20 c-7 -8 -10 -21 -7 -30 4 -8 2 -17 -3
-20 -11 -7 -14 48 -3 58 13 14 25 7 13 -8z m3350 -186 c-16 -60 -51 -139 -61
-139 -4 0 -34 -46 -65 -102 -142 -254 -343 -513 -375 -481 -15 15 54 152 110
220 28 33 71 103 96 156 28 59 59 107 79 124 18 15 42 35 52 44 34 29 69 73
118 152 27 43 51 76 53 73 2 -2 -1 -24 -7 -47z"/>
<path d="M3428 3802 c-35 -7 -27 -72 10 -72 11 0 42 33 42 46 0 14 -33 31 -52
26z"/>
<path d="M3188 3609 c-22 -12 -23 -42 -3 -59 32 -26 81 13 59 48 -14 21 -33
25 -56 11z"/>
<path d="M692 5825 c0 -16 2 -22 5 -12 2 9 2 23 0 30 -3 6 -5 -1 -5 -18z"/>
<path d="M691 5754 c0 -11 3 -14 6 -6 3 7 2 16 -1 19 -3 4 -6 -2 -5 -13z"/>
<path d="M996 5623 c-6 -14 -5 -15 5 -6 7 7 10 15 7 18 -3 3 -9 -2 -12 -12z"/>
<path d="M1450 5585 c0 -5 5 -17 10 -25 5 -8 10 -10 10 -5 0 6 -5 17 -10 25
-5 8 -10 11 -10 5z"/>
<path d="M921 5474 c0 -11 3 -14 6 -6 3 7 2 16 -1 19 -3 4 -6 -2 -5 -13z"/>
<path d="M914 5436 c-3 -8 -4 -25 -2 -38 3 -17 5 -13 9 15 5 38 2 47 -7 23z"/>
<path d="M695 5365 c-4 -25 -5 -48 -2 -51 2 -3 8 16 12 41 3 26 4 49 2 52 -3
3 -9 -16 -12 -42z"/>
<path d="M902 5310 c0 -19 2 -27 5 -17 2 9 2 25 0 35 -3 9 -5 1 -5 -18z"/>
<path d="M713 5290 c0 -25 2 -35 4 -22 2 12 2 32 0 45 -2 12 -4 2 -4 -23z"/>
<path d="M677 5165 c9 -385 93 -840 228 -1235 455 -1333 1528 -2383 2869
-2809 138 -44 195 -55 84 -16 -37 13 -80 30 -95 38 -34 19 -90 43 -120 51 -13
4 -22 12 -20 18 2 12 -133 89 -144 82 -4 -2 -54 31 -111 74 -57 42 -120 88
-138 101 -85 60 -476 527 -510 608 -19 46 -106 169 -151 215 -28 28 -81 64
-130 88 -120 60 -213 124 -251 173 -51 66 -279 315 -352 385 -36 35 -66 66
-66 68 0 3 -12 21 -26 40 -20 26 -25 40 -20 61 20 81 20 86 -3 78 -18 -6 -24
0 -42 40 -18 40 -20 57 -13 104 5 31 9 65 9 76 2 25 15 58 29 67 7 5 6 22 -3
55 -8 26 -17 66 -20 89 -4 22 -19 61 -33 86 -19 34 -23 50 -15 63 6 11 6 25
-2 41 -12 28 -4 31 16 7 8 -10 12 -12 8 -5 -4 7 -3 18 3 25 5 7 15 35 22 62 7
28 17 55 21 61 5 6 3 16 -4 24 -6 7 -7 10 -1 7 6 -4 20 2 32 13 20 19 21 19
19 1 0 -10 -6 -17 -13 -14 -7 2 -15 0 -18 -5 -3 -6 1 -12 9 -16 8 -3 17 -1 20
4 4 6 15 10 26 10 24 0 25 26 2 39 -17 9 -17 10 -1 16 10 4 15 11 12 16 -3 5
-10 6 -16 3 -6 -4 -8 -2 -4 4 3 6 -4 18 -16 26 -28 20 -38 20 -38 1 0 -8 -5
-15 -11 -15 -7 0 -8 -11 -4 -30 10 -45 -17 -50 -56 -10 -17 17 -45 34 -61 37
-16 3 -32 12 -35 19 -3 8 -10 14 -17 14 -6 0 -26 23 -44 50 -18 28 -38 48 -43
44 -13 -8 -39 15 -39 35 0 41 -24 91 -65 140 -25 29 -45 61 -45 71 0 12 -6 17
-18 14 -10 -3 -40 12 -71 35 -30 23 -58 41 -62 41 -4 0 -22 23 -40 50 -31 49
-43 58 -52 43 -2 -5 -2 -1 0 7 9 30 8 32 -10 35 -11 2 -22 7 -25 11 -4 4 1 4
11 1 21 -8 22 6 2 23 -12 10 -19 10 -27 2 -21 -21 -36 -13 -78 46 -23 31 -47
57 -53 57 -7 0 -11 8 -9 18 4 21 -35 18 -49 -4 -5 -9 -9 -10 -9 -2 0 6 5 15
10 18 7 4 6 14 -1 28 -9 19 -7 18 10 -3 11 -14 21 -20 21 -15 0 6 -13 26 -28
45 -38 47 -50 84 -72 220 -10 63 -19 98 -19 78 -1 -20 -4 -45 -7 -55 -5 -15
-4 -15 5 -3 8 11 10 4 9 -30 -1 -25 2 -54 7 -64 6 -14 5 -17 -3 -12 -13 8 -15
-4 -5 -30 6 -16 7 -16 14 2 6 16 8 15 8 -8 1 -16 -4 -28 -10 -28 -5 0 -7 -6
-3 -12 4 -7 3 -9 -1 -5 -10 8 -13 20 -23 87 l-6 45 -8 -40 c-7 -44 -2 85 7
145 3 22 0 16 -9 -15 l-13 -50 -5 100 c-3 55 -4 33 -1 -50z m30 -217 c-3 -8
-6 -5 -6 6 -1 11 2 17 5 13 3 -3 4 -12 1 -19z m39 -35 c-8 -15 -15 -25 -16
-21 0 12 23 58 27 54 3 -2 -2 -17 -11 -33z m-25 -10 c-8 -15 -10 -15 -11 -2 0
17 10 32 18 25 2 -3 -1 -13 -7 -23z m64 3 c12 -12 12 -15 0 -20 -8 -3 -15 -4
-15 -2 0 3 -3 11 -6 20 -8 20 3 21 21 2z m129 -173 c4 -10 4 -14 0 -10 -4 4
-14 1 -22 -6 -13 -11 -14 -9 -1 11 17 26 15 26 23 5z m12 -48 c-11 -8 -16 -20
-12 -30 3 -9 2 -13 -4 -10 -6 3 -10 16 -10 28 0 16 6 23 23 24 21 2 21 1 3
-12z m79 -9 c0 -16 -4 -22 -14 -18 -9 3 -12 1 -7 -6 5 -8 2 -10 -8 -6 -9 3
-13 10 -10 15 3 5 1 9 -5 9 -5 0 -11 -6 -14 -12 -2 -7 -8 -10 -12 -6 -4 4 -1
14 7 22 12 11 18 12 27 3 10 -9 14 -8 22 6 13 22 14 22 14 -7z m255 -241 c14
9 23 -16 11 -28 -9 -9 -11 -8 -6 3 4 11 -2 15 -21 16 -19 2 -24 -2 -20 -13 3
-8 1 -13 -5 -11 -6 2 -10 7 -10 11 1 4 1 14 1 22 0 13 4 14 20 5 11 -6 25 -8
30 -5z m33 -80 c-4 -11 -1 -13 10 -9 10 3 13 12 10 22 -3 9 4 4 17 -11 12 -15
20 -31 16 -34 -3 -4 -6 -2 -6 4 0 5 -7 10 -15 10 -8 0 -15 -5 -15 -10 0 -5 -6
-4 -14 2 -15 12 -18 54 -4 45 4 -3 5 -11 1 -19z m97 -139 c0 -2 -7 -7 -16 -10
-8 -3 -12 -2 -9 4 6 10 25 14 25 6z m10 -21 c0 -2 -10 -9 -22 -15 -22 -11 -22
-10 -4 4 21 17 26 19 26 11z m59 -57 c-5 -10 -11 -18 -12 -18 -2 0 -3 8 -3 18
0 10 6 19 13 19 8 0 9 -6 2 -19z m11 -28 c-6 -11 -13 -20 -16 -20 -2 0 0 9 6
20 6 11 13 20 16 20 2 0 0 -9 -6 -20z"/>
<path d="M903 5235 c0 -22 2 -30 4 -17 2 12 2 30 0 40 -3 9 -5 -1 -4 -23z"/>
<path d="M912 5170 c0 -14 2 -19 5 -12 2 6 2 18 0 25 -3 6 -5 1 -5 -13z"/>
<path d="M921 5114 c0 -11 3 -14 6 -6 3 7 2 16 -1 19 -3 4 -6 -2 -5 -13z"/>
<path d="M937 5094 c-4 -4 -7 -14 -7 -23 0 -11 3 -12 11 -4 6 6 10 16 7 23 -2
6 -7 8 -11 4z"/>
<path d="M1370 5063 c5 -2 10 -9 10 -14 0 -6 -4 -8 -9 -4 -5 3 -13 0 -17 -6
-5 -8 -3 -9 6 -4 10 6 12 3 7 -11 -7 -18 -6 -18 8 1 17 21 15 37 -3 41 -7 1
-8 0 -2 -3z"/>
<path d="M940 5037 c0 -9 29 -85 49 -130 18 -39 26 -47 49 -47 32 0 46 9 49
30 1 8 5 26 8 40 6 23 6 23 -9 -4 -9 -15 -16 -35 -16 -43 0 -13 -2 -13 -17 -2
-11 10 -14 10 -9 2 5 -9 0 -13 -14 -13 -15 0 -19 4 -13 13 12 19 10 54 -4 54
-9 0 -9 -5 -2 -20 6 -10 8 -21 6 -24 -3 -3 -12 8 -21 25 -8 16 -12 32 -9 36 4
3 2 6 -4 6 -6 0 -14 16 -17 35 -4 19 -11 37 -16 40 -6 4 -10 4 -10 2z"/>
<path d="M1156 5031 c-4 -5 3 -7 14 -4 23 6 26 13 6 13 -8 0 -17 -4 -20 -9z"/>
<path d="M1410 5020 c0 -5 -8 -10 -17 -10 -15 0 -16 -2 -3 -10 17 -11 37 -13
27 -3 -4 3 -2 12 4 20 9 9 8 13 0 13 -6 0 -11 -4 -11 -10z"/>
<path d="M1660 5020 c-9 -6 -10 -10 -3 -10 6 0 15 5 18 10 8 12 4 12 -15 0z"/>
<path d="M1556 4996 c10 -8 21 -12 24 -10 5 6 -21 24 -34 24 -6 0 -1 -6 10
-14z"/>
<path d="M1114 4956 c-3 -8 -4 -23 -2 -33 3 -11 6 -6 9 15 6 34 2 42 -7 18z"/>
<path d="M1043 4936 c8 -16 14 -21 19 -13 11 17 10 29 -2 22 -5 -3 -10 -1 -10
4 0 6 -4 11 -9 11 -5 0 -4 -11 2 -24z"/>
<path d="M1266 4925 c-9 -26 -7 -32 5 -12 6 10 9 21 6 23 -2 3 -7 -2 -11 -11z"/>
<path d="M1101 4884 c0 -11 3 -14 6 -6 3 7 2 16 -1 19 -3 4 -6 -2 -5 -13z"/>
<path d="M1683 4889 c9 -6 14 -16 11 -22 -5 -8 -2 -7 7 1 12 11 12 14 -1 22
-8 5 -19 10 -25 10 -5 -1 -2 -5 8 -11z"/>
<path d="M1251 4885 c1 -19 18 -51 18 -35 0 8 -4 22 -9 30 -5 8 -9 11 -9 5z"/>
<path d="M1734 4872 c3 -5 0 -13 -6 -15 -9 -4 -10 -6 -1 -6 17 -1 25 16 12 25
-7 4 -9 3 -5 -4z"/>
<path d="M1860 4870 c8 -5 20 -10 25 -10 6 0 3 5 -5 10 -8 5 -19 10 -25 10 -5
0 -3 -5 5 -10z"/>
<path d="M5317 4839 c7 -7 15 -10 18 -7 3 3 -2 9 -12 12 -14 6 -15 5 -6 -5z"/>
<path d="M1260 4810 c-7 -13 -14 -47 -15 -76 -2 -30 -6 -62 -10 -73 -7 -23 11
-30 84 -36 27 -1 54 -6 60 -10 6 -3 11 -2 11 4 0 12 -36 24 -49 16 -6 -3 -30
0 -55 6 -44 11 -44 11 -34 42 5 18 12 41 14 52 l4 20 -10 -20 c-8 -16 -9 -11
-4 20 3 22 11 46 16 53 6 7 8 15 5 18 -3 3 -11 -4 -17 -16z"/>
<path d="M1986 4757 c3 -10 9 -15 12 -12 3 3 0 11 -7 18 -10 9 -11 8 -5 -6z"/>
<path d="M1762 4725 c20 -14 40 -25 45 -25 4 0 -9 11 -29 25 -20 14 -40 25
-45 25 -4 0 9 -11 29 -25z"/>
<path d="M2205 4731 c-3 -5 -2 -12 3 -15 5 -3 9 1 9 9 0 17 -3 19 -12 6z"/>
<path d="M1820 4700 c-6 -11 -8 -20 -6 -20 3 0 10 9 16 20 6 11 8 20 6 20 -3
0 -10 -9 -16 -20z"/>
<path d="M1688 4698 c9 -9 8 -16 -1 -27 -8 -12 -6 -11 9 2 11 9 25 14 30 10 5
-4 3 -1 -3 7 -7 7 -20 15 -29 16 -12 2 -14 0 -6 -8z"/>
<path d="M1917 4675 c12 -8 29 -12 39 -8 12 4 15 3 10 -5 -5 -8 -2 -10 9 -5
13 5 14 7 3 14 -7 5 -20 6 -30 3 -9 -2 -19 0 -23 6 -3 5 -11 10 -18 10 -6 0
-2 -7 10 -15z"/>
<path d="M1770 4676 c0 -2 7 -7 16 -10 8 -3 12 -2 9 4 -6 10 -25 14 -25 6z"/>
<path d="M1705 4661 c-6 -11 13 -26 22 -17 4 3 1 6 -6 6 -7 0 -9 5 -6 10 3 6
4 10 1 10 -3 0 -7 -4 -11 -9z"/>
<path d="M2104 4658 c-5 -7 -3 -8 6 -3 8 5 17 2 25 -8 10 -14 13 -13 25 6 12
20 12 21 -3 9 -10 -9 -17 -10 -22 -2 -8 13 -22 13 -31 -2z"/>
<path d="M1861 4649 c-13 -5 -22 -11 -20 -14 8 -7 49 7 49 16 0 5 -1 9 -2 8
-2 0 -14 -5 -27 -10z"/>
<path d="M2210 4656 c0 -2 7 -7 16 -10 8 -3 12 -2 9 4 -6 10 -25 14 -25 6z"/>
<path d="M5336 4641 c-6 -9 7 -22 34 -35 8 -4 6 0 -5 9 -11 9 -19 21 -17 26 3
12 -5 12 -12 0z"/>
<path d="M1802 4605 c-1 -22 2 -45 6 -51 10 -15 42 -25 42 -14 0 6 -4 10 -10
10 -5 0 -11 21 -12 48 l-1 47 -7 -45 -6 -45 -5 45 -6 45 -1 -40z"/>
<path d="M1908 4633 c7 -3 16 -2 19 1 4 3 -2 6 -13 5 -11 0 -14 -3 -6 -6z"/>
<path d="M1413 4615 c-10 -11 -9 -13 6 -12 11 1 17 7 14 14 -6 16 -5 16 -20
-2z"/>
<path d="M2358 4613 c7 -3 16 -2 19 1 4 3 -2 6 -13 5 -11 0 -14 -3 -6 -6z"/>
<path d="M1940 4584 c0 -15 -8 -33 -17 -40 -16 -12 -16 -12 5 -7 12 3 22 10
22 17 0 6 3 21 6 34 4 13 2 22 -5 22 -6 0 -11 -12 -11 -26z"/>
<path d="M1481 4546 c-8 -10 -9 -16 -1 -21 5 -3 13 1 16 10 9 22 -1 29 -15 11z"/>
<path d="M1501 4523 c-9 -20 -9 -28 0 -33 8 -6 8 -9 0 -13 -9 -4 -9 -5 0 -3 9
1 23 76 14 76 -1 0 -7 -12 -14 -27z"/>
<path d="M5450 4536 c0 -2 7 -7 16 -10 8 -3 12 -2 9 4 -6 10 -25 14 -25 6z"/>
<path d="M5486 4492 c-3 -5 1 -9 9 -9 8 0 15 4 15 9 0 4 -4 8 -9 8 -6 0 -12
-4 -15 -8z"/>
<path d="M5524 4473 c2 -10 6 -17 10 -16 15 3 16 11 2 22 -12 10 -14 9 -12 -6z"/>
<path d="M2038 4403 c7 -3 16 -2 19 1 4 3 -2 6 -13 5 -11 0 -14 -3 -6 -6z"/>
<path d="M2155 4314 c9 -9 19 -13 23 -10 3 4 0 11 -8 16 -24 15 -33 11 -15 -6z"/>
<path d="M5625 4300 c3 -5 8 -10 11 -10 2 0 4 5 4 10 0 6 -5 10 -11 10 -5 0
-7 -4 -4 -10z"/>
<path d="M2190 4290 c0 -5 5 -10 10 -10 6 0 10 5 10 10 0 6 -4 10 -10 10 -5 0
-10 -4 -10 -10z"/>
<path d="M5630 4266 c0 -2 7 -9 15 -16 13 -11 14 -10 9 4 -5 14 -24 23 -24 12z"/>
<path d="M5605 4250 c3 -5 8 -10 11 -10 2 0 4 5 4 10 0 6 -5 10 -11 10 -5 0
-7 -4 -4 -10z"/>
<path d="M5413 4179 c-14 -14 -6 -39 12 -39 7 0 13 11 13 25 0 27 -8 31 -25
14z"/>
<path d="M2320 4070 c0 -5 7 -10 15 -10 8 0 15 5 15 10 0 6 -7 10 -15 10 -8 0
-15 -4 -15 -10z"/>
<path d="M5105 4070 c3 -5 8 -10 11 -10 2 0 4 5 4 10 0 6 -5 10 -11 10 -5 0
-7 -4 -4 -10z"/>
<path d="M4961 4034 c0 -11 3 -14 6 -6 3 7 2 16 -1 19 -3 4 -6 -2 -5 -13z"/>
<path d="M3641 4018 c-1 -16 4 -28 9 -28 12 0 12 8 0 35 -8 18 -9 17 -9 -7z"/>
<path d="M3695 4030 c-3 -5 -1 -10 4 -10 6 0 11 5 11 10 0 6 -2 10 -4 10 -3 0
-8 -4 -11 -10z"/>
<path d="M3757 4029 c7 -7 15 -10 18 -7 3 3 -2 9 -12 12 -14 6 -15 5 -6 -5z"/>
<path d="M4980 4011 c0 -5 7 -11 15 -15 9 -3 15 0 15 9 0 8 -7 15 -15 15 -8 0
-15 -4 -15 -9z"/>
<path d="M3781 3985 c-1 -11 -4 -31 -7 -45 -5 -22 -4 -23 6 -7 6 10 9 30 7 45
-3 18 -5 20 -6 7z"/>
<path d="M3551 3974 c0 -11 3 -14 6 -6 3 7 2 16 -1 19 -3 4 -6 -2 -5 -13z"/>
<path d="M3715 3980 c-3 -5 1 -10 10 -10 9 0 13 5 10 10 -3 6 -8 10 -10 10 -2
0 -7 -4 -10 -10z"/>
<path d="M3441 3934 c0 -11 3 -14 6 -6 3 7 2 16 -1 19 -3 4 -6 -2 -5 -13z"/>
<path d="M3480 3930 c0 -19 3 -21 12 -12 9 9 9 15 0 24 -9 9 -12 7 -12 -12z"/>
<path d="M3511 3934 c0 -11 3 -14 6 -6 3 7 2 16 -1 19 -3 4 -6 -2 -5 -13z"/>
<path d="M3591 3937 c-6 -8 -8 -22 -5 -31 6 -15 7 -15 19 1 7 10 11 21 9 25
-3 5 2 8 10 8 20 0 20 -14 1 -34 -8 -8 -11 -17 -6 -20 13 -8 33 20 29 41 -4
22 -41 29 -57 10z"/>
<path d="M3726 3918 c-7 -21 -3 -47 5 -42 4 2 6 13 4 24 -4 22 10 28 18 8 3
-8 6 -6 6 5 1 19 -28 24 -33 5z"/>
<path d="M4160 3830 c0 -6 33 -10 80 -10 47 0 80 4 80 10 0 6 -33 10 -80 10
-47 0 -80 -4 -80 -10z"/>
</g>
</svg>
